<svg xmlns="http://www.w3.org/2000/svg" width="447.639" height="62.222" viewBox="0 0 447.639 62.222">
  <g id="available-cards" transform="translate(-28.604 -27.929)">
    <path id="Icon_awesome-cc-mastercard" data-name="Icon awesome-cc-mastercard" d="M67.069,54.723A1.557,1.557,0,1,1,65.514,53.1,1.552,1.552,0,0,1,67.069,54.723ZM23.9,53.1a1.629,1.629,0,1,0,1.514,1.625A1.536,1.536,0,0,0,23.9,53.1Zm16.319-.042A1.287,1.287,0,0,0,38.9,54.265h2.653A1.277,1.277,0,0,0,40.222,53.056Zm14.972.042a1.627,1.627,0,1,0,1.556,1.625A1.536,1.536,0,0,0,55.194,53.1ZM69.9,56.723c0,.042.042.069.042.153,0,.042-.042.069-.042.153a.487.487,0,0,0-.069.111.179.179,0,0,1-.153.069c-.042.042-.069.042-.153.042a.275.275,0,0,1-.153-.042c-.042,0-.069-.042-.111-.069s-.069-.069-.069-.111a.253.253,0,0,1-.042-.153c0-.069,0-.111.042-.153a.261.261,0,0,1,.069-.153.487.487,0,0,1,.111-.069.253.253,0,0,1,.153-.042c.069,0,.111,0,.153.042.069.042.111.042.153.069S69.861,56.654,69.9,56.723Zm-.306.194c.069,0,.069-.042.111-.042a.169.169,0,0,0,0-.222c-.042,0-.069-.042-.153-.042h-.222V57.1h.111V56.9h.042l.153.194h.111l-.153-.181ZM80,8.987V57.876a6.668,6.668,0,0,1-6.667,6.667H6.667A6.668,6.668,0,0,1,0,57.876V8.987A6.668,6.668,0,0,1,6.667,2.32H73.333A6.668,6.668,0,0,1,80,8.987ZM8.889,28.376A19.227,19.227,0,0,0,38.75,44.4a20.713,20.713,0,0,1,0-32.014A19.227,19.227,0,0,0,8.889,28.376ZM40,43.487a19.23,19.23,0,0,0,0-30.208A19.23,19.23,0,0,0,40,43.487Zm-19.764,10.6a1.946,1.946,0,0,0-2.042-2.042,1.986,1.986,0,0,0-1.778.9,1.842,1.842,0,0,0-1.694-.9,1.763,1.763,0,0,0-1.472.75v-.611H12.111v5.1H13.25c0-2.625-.347-4.194,1.25-4.194,1.417,0,1.139,1.417,1.139,4.194h1.1c0-2.542-.347-4.194,1.25-4.194,1.417,0,1.139,1.389,1.139,4.194h1.139V54.084Zm6.236-1.9h-1.1v.611a2,2,0,0,0-1.625-.75,2.685,2.685,0,0,0,0,5.361,1.926,1.926,0,0,0,1.625-.75v.639h1.1ZM32.1,55.737c0-2.083-3.181-1.139-3.181-2.111,0-.792,1.653-.667,2.569-.153l.458-.9c-1.306-.847-4.194-.833-4.194,1.139s3.181,1.153,3.181,2.083c0,.875-1.875.806-2.875.111l-.486.875C29.125,57.834,32.1,57.612,32.1,55.737Zm4.917,1.292-.306-.944c-.528.292-1.694.611-1.694-.569V53.209h1.819V52.181H35.014V50.626H33.875v1.556H32.819V53.2h1.056v2.319c0,2.444,2.4,2,3.139,1.514Zm1.847-1.861h3.819c0-2.25-1.028-3.139-2.417-3.139a2.5,2.5,0,0,0-2.528,2.681c0,2.847,3.139,3.319,4.694,1.972l-.528-.833c-1.083.889-2.722.806-3.042-.681Zm8.208-2.986a1.63,1.63,0,0,0-2.111.611v-.611H43.819v5.1h1.139V54.4a1.159,1.159,0,0,1,1.778-1.167l.333-1.056Zm1.472,2.542c0-1.583,1.611-2.1,2.875-1.167l.528-.9A2.76,2.76,0,0,0,47.4,54.737c0,2.75,3.111,3.306,4.542,2.083l-.528-.9C50.139,56.82,48.542,56.279,48.542,54.723Zm9.264-2.542H56.667v.611c-1.153-1.528-4.153-.667-4.153,1.931,0,2.667,3.111,3.431,4.153,1.931v.639h1.139V52.181Zm4.681,0a1.669,1.669,0,0,0-2.111.611v-.611h-1.1v5.1h1.1V54.4a1.165,1.165,0,0,1,1.778-1.167l.333-1.056Zm5.6-2.069h-1.1v2.681c-1.139-1.514-4.153-.708-4.153,1.931,0,2.694,3.125,3.417,4.153,1.931v.639h1.1Zm1.056-10.431v.639h.111v-.639h.264V39.57h-.639v.111h.264Zm.917,17.194a.423.423,0,0,0-.042-.222c-.042-.042-.069-.111-.111-.153s-.111-.069-.153-.111c-.069,0-.153-.042-.222-.042a1.476,1.476,0,0,1-.194.042.726.726,0,0,0-.153.111.217.217,0,0,0-.111.153.423.423,0,0,0-.042.222.4.4,0,0,0,.042.194.217.217,0,0,0,.111.153.482.482,0,0,0,.153.111.377.377,0,0,0,.194.042.424.424,0,0,0,.222-.042c.042-.042.111-.069.153-.111s.069-.111.111-.153A.4.4,0,0,0,70.056,56.876ZM70.5,39.556h-.194l-.222.486-.222-.486h-.194v.75h.111v-.569l.222.486h.153l.194-.486v.569H70.5Zm.611-11.181a19.227,19.227,0,0,0-29.861-16,20.713,20.713,0,0,1,0,32.014A19.227,19.227,0,0,0,71.111,28.376Z" transform="translate(28.604 25.609)" fill="#fff"/>
    <path id="Icon_awesome-cc-visa" data-name="Icon awesome-cc-visa" d="M65.292,29.931s1.056,5.167,1.292,6.25H61.944c.458-1.236,2.222-6.042,2.222-6.042-.028.042.458-1.264.736-2.069l.389,1.861ZM80,8.917V57.806a6.668,6.668,0,0,1-6.667,6.667H6.667A6.668,6.668,0,0,1,0,57.806V8.917A6.668,6.668,0,0,1,6.667,2.25H73.333A6.668,6.668,0,0,1,80,8.917ZM21.181,43.806,29.958,22.25h-5.9L18.6,36.972,18,33.986l-1.944-9.917a2.323,2.323,0,0,0-2.528-1.819H4.542l-.1.431a22.04,22.04,0,0,1,5.861,2.375l4.972,18.75Zm13.111.028,3.5-21.583H32.208L28.722,43.833h5.569Zm19.431-7.056c.028-2.458-1.472-4.333-4.681-5.875-1.958-.986-3.153-1.653-3.153-2.667.028-.917,1.014-1.861,3.208-1.861a9.57,9.57,0,0,1,4.153.819l.5.236.764-4.667a13.87,13.87,0,0,0-5-.917c-5.514,0-9.389,2.944-9.417,7.139-.042,3.1,2.778,4.819,4.889,5.861,2.153,1.056,2.889,1.75,2.889,2.681-.028,1.444-1.75,2.111-3.347,2.111a11.126,11.126,0,0,1-5.236-1.153l-.736-.347-.778,4.847A17.042,17.042,0,0,0,44,44.139C49.861,44.153,53.681,41.25,53.722,36.778Zm19.611,7.056-4.5-21.583H64.514A2.747,2.747,0,0,0,61.6,24.042L53.306,43.833h5.861s.958-2.667,1.167-3.236H67.5c.167.764.667,3.236.667,3.236Z" transform="translate(120.514 25.679)" fill="#fff"/>
    <path id="Icon_awesome-cc-stripe" data-name="Icon awesome-cc-stripe" d="M68.389,28.472c-1.236,0-2.6.931-2.6,3.153h5.1C70.889,29.4,69.6,28.472,68.389,28.472Zm-16.306.361a2.957,2.957,0,0,0-2.361.972l.028,7.333a3,3,0,0,0,2.333.931c1.819,0,3.042-1.986,3.042-4.639C55.125,30.847,53.875,28.819,52.083,28.833ZM73.333,2.25H6.667A6.668,6.668,0,0,0,0,8.917V57.806a6.668,6.668,0,0,0,6.667,6.667H73.333A6.668,6.668,0,0,0,80,57.806V8.917A6.668,6.668,0,0,0,73.333,2.25Zm-56.361,34.6c0,3.556-2.819,5.569-6.931,5.6a13.649,13.649,0,0,1-5.389-1.125V36.611a12.616,12.616,0,0,0,5.4,1.569c1.1,0,1.889-.292,1.889-1.208,0-2.361-7.5-1.472-7.5-6.931,0-3.5,2.667-5.583,6.667-5.583a13.02,13.02,0,0,1,4.9.9V30a11.091,11.091,0,0,0-4.9-1.264c-1.042,0-1.681.306-1.681,1.069,0,2.222,7.542,1.167,7.542,7.042Zm9.556-7.861h-3.75V36c0,2.9,3.125,2,3.75,1.75v4.014a7.59,7.59,0,0,1-3.458.653,4.965,4.965,0,0,1-5.125-5.069l.028-15.819L22.792,20.5v4.278h3.736Zm10.278.333a3.5,3.5,0,0,0-3.764,1.028V42.069H28.111V24.778h4.264l.306,1.458a3.356,3.356,0,0,1,4.111-1.458h.014Zm6.125,12.75H37.972V24.778h4.958Zm0-19.847-4.958,1.056V19.264l4.958-1.056ZM53.222,42.431a5.559,5.559,0,0,1-3.486-1.25l-.014,5.583-4.931,1.042V24.778h4.347L49.389,26a5.571,5.571,0,0,1,3.861-1.542c3.458,0,6.722,3.125,6.722,8.861,0,6.264-3.222,9.1-6.75,9.111ZM75.5,35.278H65.847c.222,2.306,1.917,2.986,3.833,2.986a10.413,10.413,0,0,0,4.847-1.1v3.972a11.159,11.159,0,0,1-5.472,1.278c-4.806,0-8.167-3.014-8.167-8.958,0-5.028,2.847-9.014,7.542-9.014s7.125,3.986,7.125,9.042c0,.486-.042,1.514-.056,1.792Z" transform="translate(212.424 25.679)" fill="#fff"/>
    <path id="Icon_awesome-cc-paypal" data-name="Icon awesome-cc-paypal" d="M25.875,33.667a2.98,2.98,0,0,1-3.056,2.986A2.007,2.007,0,0,1,20.6,34.569a3.012,3.012,0,0,1,3.014-3.056A2.086,2.086,0,0,1,25.875,33.667ZM11.181,26.931h-.653a.435.435,0,0,0-.444.375l-.6,3.708,1.139-.042c1.528,0,2.708-.208,2.986-1.972.319-1.861-.861-2.069-2.431-2.069Zm39.444,0H50a.409.409,0,0,0-.444.375l-.583,3.708,1.111-.042c1.806,0,3.056-.417,3.056-2.5-.014-1.472-1.333-1.542-2.514-1.542ZM80,8.917V57.806a6.668,6.668,0,0,1-6.667,6.667H6.667A6.668,6.668,0,0,1,0,57.806V8.917A6.668,6.668,0,0,1,6.667,2.25H73.333A6.668,6.668,0,0,1,80,8.917ZM17.819,27.722c0-2.917-2.25-3.889-4.819-3.889H7.444a.734.734,0,0,0-.722.653L4.444,38.667a.478.478,0,0,0,.444.556H7.528a.886.886,0,0,0,.764-.792l.625-3.694c.139-1,1.833-.653,2.5-.653,3.972,0,6.4-2.361,6.4-6.361Zm11.694,1.222H26.875c-.528,0-.556.764-.583,1.139A3.546,3.546,0,0,0,23,28.694a6.2,6.2,0,0,0-6,6.278,4.146,4.146,0,0,0,4.4,4.472,5.409,5.409,0,0,0,3.681-1.653,3.712,3.712,0,0,0-.139.861c0,.319.139.556.444.556h2.389c.375,0,.694-.4.764-.792l1.417-8.931A.473.473,0,0,0,29.514,28.944Zm5.625,13.6,8.847-12.861a.285.285,0,0,0,.069-.236.5.5,0,0,0-.444-.486H40.944a.786.786,0,0,0-.625.347l-3.681,5.417-1.528-5.208a.843.843,0,0,0-.764-.556h-2.6a.5.5,0,0,0-.444.486c0,.167,2.708,7.889,2.944,8.625A35.882,35.882,0,0,0,31.4,42.458a.448.448,0,0,0,.444.444h2.667a.818.818,0,0,0,.625-.361ZM57.264,27.722c0-2.917-2.25-3.889-4.819-3.889H46.931a.765.765,0,0,0-.764.653l-2.25,14.167a.5.5,0,0,0,.444.556h2.847a.6.6,0,0,0,.556-.444l.625-4.028c.139-1,1.833-.653,2.5-.653C54.833,34.083,57.264,31.722,57.264,27.722Zm11.694,1.222H66.319c-.528,0-.556.764-.6,1.139-.764-1.181-1.944-1.389-3.292-1.389a6.2,6.2,0,0,0-6,6.278,4.146,4.146,0,0,0,4.4,4.472,5.251,5.251,0,0,0,3.681-1.653,6.172,6.172,0,0,0-.139.861c0,.319.139.556.444.556h2.4c.375,0,.694-.4.764-.792L69.4,29.486a.473.473,0,0,0-.444-.542Zm6.6-4.625a.467.467,0,0,0-.444-.486H72.542a.461.461,0,0,0-.444.375l-2.25,14.444-.042.069a.492.492,0,0,0,.486.486h2.292a.86.86,0,0,0,.722-.792l2.25-14.056v-.042Zm-12.5,7.194a3,3,0,0,0-3.014,3.056,2.036,2.036,0,0,0,2.25,2.083,2.962,2.962,0,0,0,3.014-2.986,2.067,2.067,0,0,0-2.25-2.153Z" transform="translate(304.334 25.679)" fill="#fff"/>
    <path id="Icon_awesome-cc-discover" data-name="Icon awesome-cc-discover" d="M72.278,25.042c0-1.1-.764-1.681-2.167-1.681h-.681v3.458h.653C71.514,26.819,72.278,26.208,72.278,25.042ZM73.333,2.25H6.667A6.668,6.668,0,0,0,0,8.917V57.806a6.668,6.668,0,0,0,6.667,6.667H73.333A6.668,6.668,0,0,0,80,57.806V8.917A6.668,6.668,0,0,0,73.333,2.25ZM67.208,21.542c3.139,0,7.347-.569,7.347,3.389a3.019,3.019,0,0,1-2.6,3.222l3.583,4.778H72.819l-3.083-4.556h-.306v4.556H67.208Zm-7.764.014h6.292V23.5H61.667v2.528H65.6v1.917H61.667v3.083h4.069v1.917H59.444Zm-9.542,0,3.042,7.667,3.083-7.667h2.431L53.528,33.25H52.333L47.472,21.556Zm-7.764-.417a6.194,6.194,0,1,1-6.194,6.194A6.191,6.191,0,0,1,42.139,21.139Zm-6.847.847v2.639a3.706,3.706,0,0,0-6.5,2.639,3.71,3.71,0,0,0,6.5,2.667v2.639a5.988,5.988,0,1,1,0-10.583Zm-13.5,9.208c1.583,0,3.111-2.125-.458-3.389-2.083-.764-2.806-1.583-2.806-3.153,0-3.222,4.25-4.361,6.9-1.986l-1.167,1.5c-1.444-1.611-3.458-.861-3.458.347,0,.611.375.958,1.708,1.431,2.528.917,3.278,1.736,3.278,3.556,0,4.1-5.389,5.194-7.861,1.569l1.431-1.375a2.63,2.63,0,0,0,2.431,1.5Zm-14.1,1.75H4.444V21.556h3.25c3.625,0,6.125,2.361,6.125,5.708C13.819,29.833,11.986,32.944,7.694,32.944Zm9.375,0H14.847V21.556h2.222Zm58.486,25a2.1,2.1,0,0,1-2.083,2.083H17.778c26.333-4.944,53.153-19.333,57.778-22.222ZM10.292,24.417A4.044,4.044,0,0,0,7.25,23.5H6.667v7.528H7.25a4.284,4.284,0,0,0,3.042-.889,3.893,3.893,0,0,0,1.236-2.875,3.788,3.788,0,0,0-1.236-2.847Z" transform="translate(396.244 25.679)" fill="#fff"/>
  </g>
</svg>
