<svg xmlns="http://www.w3.org/2000/svg" width="699.635" height="370.526" viewBox="0 0 699.635 370.526">
  <g id="logo-light" transform="translate(-610.583 -355)">
    <g id="Path_3" data-name="Path 3" transform="translate(960.262 355) rotate(45)">
      <path id="Path_1" data-name="Path 1" d="M0,0H262V262H0Z" fill="none"/>
      <path id="Path_2" data-name="Path 2" d="M8,8V254H254V8H8M0,0H262V262H0Z" fill="#dbb76f"/>
    </g>
    <path id="Path_2-2" data-name="Path 2" d="M-307.495-27.145a5.435,5.435,0,0,0-1.246-3.783,7.731,7.731,0,0,0-3.471-2.091.661.661,0,0,0-.49-.178,1.819,1.819,0,0,1-.578-.089,3.445,3.445,0,0,1-.979-.356h23.407a1.442,1.442,0,0,1-.89.267,5.517,5.517,0,0,0-1.068.356,7.954,7.954,0,0,0-3.56,2.047,5.4,5.4,0,0,0-1.246,3.827v29.9a2.4,2.4,0,0,1-.757-.133.552.552,0,0,1-.4-.579,2.913,2.913,0,0,1-.178-.712,3.642,3.642,0,0,0-.757-1.513,3.272,3.272,0,0,0-2.537-.712,10.447,10.447,0,0,0-2.136.223,14.835,14.835,0,0,0-2.047.579,32.2,32.2,0,0,1-9.523,1.424,37.078,37.078,0,0,1-13.617-2.4,30.678,30.678,0,0,1-10.546-6.764,30.81,30.81,0,0,1-6.853-10.324,33.894,33.894,0,0,1-2.448-12.994A30.752,30.752,0,0,1-348.125-40a32.262,32.262,0,0,1,3.694-8.1,35.616,35.616,0,0,1,5.785-6.942,33.818,33.818,0,0,1,7.476-5.3,32.334,32.334,0,0,1,6.319-2.537,24.338,24.338,0,0,1,6.675-.934,26.969,26.969,0,0,1,6.853.934,22.793,22.793,0,0,1,6.5,2.8,17.065,17.065,0,0,1,4.851,4.583,10.472,10.472,0,0,1,1.913,6.186,6.148,6.148,0,0,1-1.78,4.539A6.261,6.261,0,0,1-304.467-43a6.412,6.412,0,0,1-4.673-1.78,6.069,6.069,0,0,1-1.824-4.539,3.728,3.728,0,0,1,.445-1.913,7.387,7.387,0,0,1,1.157-1.468l.312-.312.311-.312a3.335,3.335,0,0,0,.311-.356,3.332,3.332,0,0,1,.311-.356,7.857,7.857,0,0,0,.445-.845,2.283,2.283,0,0,0,.178-.934,3.979,3.979,0,0,0-1.157-2.937,9.743,9.743,0,0,0-2.759-1.914,13.218,13.218,0,0,0-3.382-1.068,18.01,18.01,0,0,0-3.026-.311,16.445,16.445,0,0,0-9.523,2.625,20.058,20.058,0,0,0-6.141,6.675,30.551,30.551,0,0,0-3.337,8.855,44.038,44.038,0,0,0-1.023,9.167,49.234,49.234,0,0,0,.578,7.254,44.762,44.762,0,0,0,1.869,7.7,43.858,43.858,0,0,0,3.249,7.343,27.349,27.349,0,0,0,4.717,6.23,21.725,21.725,0,0,0,6.275,4.317,19,19,0,0,0,7.965,1.6A16.759,16.759,0,0,0-310.43-.5q1.335-.222,2.67-.578l.267-.089ZM-284.355,0a.683.683,0,0,1,.267-.089,1.434,1.434,0,0,1,.623-.178A4.369,4.369,0,0,1-282.4-.534a7.543,7.543,0,0,0,3.56-2.136,5.606,5.606,0,0,0,1.249-3.83V-55.9a5.435,5.435,0,0,0-1.246-3.783,7.737,7.737,0,0,0-3.56-2.091.764.764,0,0,0-.4-.134,6.628,6.628,0,0,1-.668-.133,6.549,6.549,0,0,0-.712-.267h23.585l-.712.267a6.3,6.3,0,0,0-1.068.267,7.731,7.731,0,0,0-3.471,2.091,5.435,5.435,0,0,0-1.246,3.783V-6.5q0,2.848,1.557,3.872A7.434,7.434,0,0,0-261.393-1.6h9.612A13.874,13.874,0,0,0-245.6-3.115a30.179,30.179,0,0,0,5.874-3.827,48.7,48.7,0,0,0,5.207-4.984q2.4-2.67,4.183-5.073L-237.1,0Zm56.426,0,.089-.089.8-.356A9.853,9.853,0,0,0-223.257-2.4a8.125,8.125,0,0,0,2.626-3.3l26.255-56.6h3.827l26.255,56.6a8.707,8.707,0,0,0,2.27,2.937A12.759,12.759,0,0,0-158.954-.8a1.449,1.449,0,0,1,.4.134q.311.134.668.312a3.72,3.72,0,0,0,.623.178l.178.089L-157,0h-22.7l.089-.089.178-.089a4.883,4.883,0,0,0,.623-.267l.712-.178a3.479,3.479,0,0,0,.712-.267,4.727,4.727,0,0,0,1.335-1.024,2.7,2.7,0,0,0,.623-1.914,5.516,5.516,0,0,0-.445-2.136l-4.717-10.146H-213.96l-4.717,10.146a6.664,6.664,0,0,0-.312,1.068,5.218,5.218,0,0,0-.133,1.068,2.855,2.855,0,0,0,.935,2.359,5.2,5.2,0,0,0,2.358,1.023,1.366,1.366,0,0,0,.534.178l.445.267Zm14.685-17.711h31.862l-15.931-34.265ZM-154.771,0a.363.363,0,0,1,.267-.089l.178-.089.89-.178a9.749,9.749,0,0,0,3.96-1.736,5.513,5.513,0,0,0,2.092-3.872l5.34-49.751a14.344,14.344,0,0,0-.178-2.492,4.3,4.3,0,0,0-.668-1.691,4.354,4.354,0,0,0-1.38-1.246,14.411,14.411,0,0,0-2.314-1.068h-.089l-.089-.089h15.486l20.025,47.882L-91.225-62.3h14.24a4.885,4.885,0,0,0-.623.267,5.216,5.216,0,0,0-3.159,2.225A6.658,6.658,0,0,0-81.88-56.07a4.109,4.109,0,0,0,.045.578,4.728,4.728,0,0,1,.044.667l5.34,49.039A4.718,4.718,0,0,0-75.16-2.67,7.921,7.921,0,0,0-72.8-1.07a9.872,9.872,0,0,0,1.557.489A8.024,8.024,0,0,0-69.6-.267l.445.267h-24.03a.513.513,0,0,1,.356-.178,1.24,1.24,0,0,1,.534-.089A11,11,0,0,0-89.4-1.2a4.409,4.409,0,0,0,2.091-2.181,4.672,4.672,0,0,0,.267-1.024,2.952,2.952,0,0,0,0-1.023L-92.382-55-115.433,0h-2.136l-22.873-54.646-5.34,49.306a3.385,3.385,0,0,0,1.068,3.2,7.465,7.465,0,0,0,3.026,1.6,1.728,1.728,0,0,0,.534.133,3.292,3.292,0,0,1,.8.223h.267q.445.089.445.178ZM-33.286,1.335A37.078,37.078,0,0,1-46.9-1.068,30.678,30.678,0,0,1-57.45-7.832,30.81,30.81,0,0,1-64.3-18.156,33.893,33.893,0,0,1-66.75-31.15,33.893,33.893,0,0,1-64.3-44.144a30.33,30.33,0,0,1,6.853-10.28A31.573,31.573,0,0,1-46.9-61.188a36.478,36.478,0,0,1,13.617-2.447,36.478,36.478,0,0,1,13.617,2.447A32.073,32.073,0,0,1-9.078-54.424a30.015,30.015,0,0,1,6.9,10.28A33.893,33.893,0,0,1,.267-31.15,33.893,33.893,0,0,1-2.181-18.156a30.485,30.485,0,0,1-6.9,10.324A31.153,31.153,0,0,1-19.669-1.068a37.078,37.078,0,0,1-13.617,2.4Zm2.759-1.6A16.274,16.274,0,0,0-21.182-2.8a19.54,19.54,0,0,0,6.008-6.453,27.913,27.913,0,0,0,3.2-8.589,45.625,45.625,0,0,0,.935-8.945,47.462,47.462,0,0,0-.623-7.342,48.625,48.625,0,0,0-1.914-7.832,44.045,44.045,0,0,0-3.293-7.476,29.5,29.5,0,0,0-4.762-6.408,21.222,21.222,0,0,0-6.363-4.45,19.164,19.164,0,0,0-8.055-1.647A16.109,16.109,0,0,0-45.3-59.408a19.54,19.54,0,0,0-6.007,6.452,27.94,27.94,0,0,0-3.2,8.544,44.962,44.962,0,0,0-.934,8.9,47.462,47.462,0,0,0,.623,7.343,49.917,49.917,0,0,0,1.913,7.876,45.665,45.665,0,0,0,3.249,7.521A27.7,27.7,0,0,0-44.9-6.364a21.992,21.992,0,0,0,6.364,4.45A18.863,18.863,0,0,0-30.527-.267ZM30.7-62.3a.553.553,0,0,1-.4.178,1.559,1.559,0,0,0-.49.089l-1.068.267a7.413,7.413,0,0,0-3.427,2.091,5.565,5.565,0,0,0-1.2,3.783v32.307A29.356,29.356,0,0,0,25.276-15.4,22.649,22.649,0,0,0,28.7-8.277a17.386,17.386,0,0,0,5.74,5.029,16.32,16.32,0,0,0,8.01,1.914,16.067,16.067,0,0,0,7.965-1.914,17.529,17.529,0,0,0,5.7-5.029A21.941,21.941,0,0,0,59.5-15.4a30.451,30.451,0,0,0,1.113-8.188v-32.3a5.565,5.565,0,0,0-1.2-3.783,7.413,7.413,0,0,0-3.426-2.091l-1.068-.267a2.759,2.759,0,0,1-.8-.267H68.975a2.759,2.759,0,0,1-.8.267,10.935,10.935,0,0,0-4.183,1.958A5,5,0,0,0,62.3-55.892v32.307a27.9,27.9,0,0,1-1.736,9.879,23.974,23.974,0,0,1-4.939,8.055A23.376,23.376,0,0,1,47.882-.223a25.1,25.1,0,0,1-10.235,2,24.48,24.48,0,0,1-10.146-2A21.885,21.885,0,0,1,19.98-5.7a24.45,24.45,0,0,1-4.717-8.1,28.989,28.989,0,0,1-1.646-9.79v-32.3a5.435,5.435,0,0,0-1.246-3.783A7.731,7.731,0,0,0,8.9-61.766l-1.068-.267a2.759,2.759,0,0,1-.8-.267ZM73.959,0a.363.363,0,0,1,.267-.089,1.434,1.434,0,0,1,.623-.178,3.41,3.41,0,0,1,1.068-.267,7.737,7.737,0,0,0,3.56-2.092A5.572,5.572,0,0,0,80.723-6.5V-55.9a5.435,5.435,0,0,0-1.246-3.783,7.737,7.737,0,0,0-3.56-2.091,6.3,6.3,0,0,0-1.068-.267,6.549,6.549,0,0,0-.712-.267h23.14a40.931,40.931,0,0,1,6.274.49,27.629,27.629,0,0,1,6.052,1.646,22.571,22.571,0,0,1,5.3,2.982,15.758,15.758,0,0,1,4,4.495,12.778,12.778,0,0,1,1.958,6.942,12.871,12.871,0,0,1-1.335,5.918,15.842,15.842,0,0,1-3.56,4.628,20.315,20.315,0,0,1-5.118,3.337,26.855,26.855,0,0,1-6.007,1.958l-1.513.356,1.513.356a16.523,16.523,0,0,1,7.565,4.183,19.928,19.928,0,0,1,4.539,7.209l2.937,7.743a21.037,21.037,0,0,0,.845,2.225,18.007,18.007,0,0,0,1.379,2.581,10.637,10.637,0,0,0,1.78,2.136,3.021,3.021,0,0,0,2.047.89,2.27,2.27,0,0,0,1.735-.712,9.323,9.323,0,0,0,1.113-1.424l.712-1.424.534,1.6A10.94,10.94,0,0,1,126.6-.712,8.659,8.659,0,0,1,121.841.623,10.286,10.286,0,0,1,117.258-.4a15.323,15.323,0,0,1-3.827-2.67A19.135,19.135,0,0,1,110.4-6.764a24.282,24.282,0,0,1-2.092-4.094l-2.848-7.387q-.534-1.335-1.38-3.16a23.927,23.927,0,0,0-2.047-3.56,13.967,13.967,0,0,0-2.759-2.981,5.6,5.6,0,0,0-3.6-1.246h-4.45V-6.5A5.572,5.572,0,0,0,92.47-2.628,7.737,7.737,0,0,0,96.03-.536a2.7,2.7,0,0,1,.979.267,1.434,1.434,0,0,1,.623.178A.363.363,0,0,1,97.9,0ZM91.225-30.794h3.649a15.732,15.732,0,0,0,6.141-1.157,14.175,14.175,0,0,0,4.717-3.159,13.369,13.369,0,0,0,2.981-4.762,16.752,16.752,0,0,0,1.024-5.874,16.387,16.387,0,0,0-1.024-5.83,13.449,13.449,0,0,0-2.981-4.717,14.175,14.175,0,0,0-4.717-3.16,15.732,15.732,0,0,0-6.141-1.157H91.225ZM157.441,0a.683.683,0,0,1,.267-.089,1.434,1.434,0,0,1,.623-.178A3.41,3.41,0,0,1,159.4-.534a7.543,7.543,0,0,0,3.56-2.136,5.606,5.606,0,0,0,1.245-3.83V-55.9a5.435,5.435,0,0,0-1.246-3.783,7.737,7.737,0,0,0-3.56-2.091.764.764,0,0,0-.4-.134,6.628,6.628,0,0,1-.668-.133,1.434,1.434,0,0,0-.623-.178l-.089-.089H181.2l-.712.267a6.3,6.3,0,0,0-1.068.267,7.731,7.731,0,0,0-3.471,2.091A5.435,5.435,0,0,0,174.7-55.9v23.941H206.48V-55.892a5.436,5.436,0,0,0-1.246-3.783,7.737,7.737,0,0,0-3.56-2.091.764.764,0,0,0-.4-.134,6.627,6.627,0,0,1-.667-.133,1.434,1.434,0,0,0-.623-.178l-.089-.089h23.763a6.907,6.907,0,0,1-.89.356q-.89.178-1.246.267a7.416,7.416,0,0,0-3.337,2.091,5.426,5.426,0,0,0-1.2,3.694V-6.5a5.572,5.572,0,0,0,1.246,3.872,7.737,7.737,0,0,0,3.56,2.092,2.8,2.8,0,0,1,1.068.267,1.434,1.434,0,0,1,.623.178.363.363,0,0,1,.267.089h-24.03a.683.683,0,0,1,.267-.089,1.434,1.434,0,0,1,.623-.178,3.41,3.41,0,0,1,1.068-.267,7.543,7.543,0,0,0,3.56-2.136A5.606,5.606,0,0,0,206.48-6.5V-30.349H174.707V-6.5a5.606,5.606,0,0,0,1.246,3.827,7.536,7.536,0,0,0,3.471,2.136,2.8,2.8,0,0,1,1.068.267,1.434,1.434,0,0,1,.623.178h.267V0Zm95.408-62.3a.553.553,0,0,1-.4.178,1.559,1.559,0,0,0-.49.089l-1.068.267a7.413,7.413,0,0,0-3.426,2.091,5.565,5.565,0,0,0-1.2,3.783v32.307A29.357,29.357,0,0,0,247.42-15.4a22.649,22.649,0,0,0,3.426,7.12,17.386,17.386,0,0,0,5.74,5.029,16.32,16.32,0,0,0,8.01,1.914,16.067,16.067,0,0,0,7.965-1.914,17.529,17.529,0,0,0,5.7-5.029,21.94,21.94,0,0,0,3.382-7.12,30.452,30.452,0,0,0,1.113-8.188v-32.3a5.565,5.565,0,0,0-1.2-3.783,7.413,7.413,0,0,0-3.427-2.091l-1.068-.267a2.759,2.759,0,0,1-.8-.267h14.863a2.758,2.758,0,0,1-.8.267,10.935,10.935,0,0,0-4.183,1.958,5,5,0,0,0-1.691,4.183v32.307a27.9,27.9,0,0,1-1.736,9.879,23.973,23.973,0,0,1-4.939,8.055,23.376,23.376,0,0,1-7.743,5.429,25.1,25.1,0,0,1-10.235,2,24.48,24.48,0,0,1-10.146-2,21.885,21.885,0,0,1-7.52-5.474,24.45,24.45,0,0,1-4.717-8.1,28.989,28.989,0,0,1-1.646-9.79V-55.892a5.435,5.435,0,0,0-1.246-3.783,7.731,7.731,0,0,0-3.471-2.091l-1.068-.267a2.759,2.759,0,0,1-.8-.267ZM296.1,0a3.445,3.445,0,0,1,.979-.356A10.909,10.909,0,0,0,301.22-2.27a5.048,5.048,0,0,0,1.647-4.23V-55.9a5.069,5.069,0,0,0-1.646-4.183,10.526,10.526,0,0,0-4.139-1.958,2.76,2.76,0,0,1-.8-.267h27.145a28.725,28.725,0,0,1,7.476.979,20.9,20.9,0,0,1,6.542,2.981,15.314,15.314,0,0,1,4.628,5.028,13.884,13.884,0,0,1,1.735,7.031,13.625,13.625,0,0,1-2.625,8.233A17.817,17.817,0,0,1,334.2-32.4l-1.157.534,1.335.089a20.485,20.485,0,0,1,6.185,1.646,17.493,17.493,0,0,1,5.029,3.337,15.473,15.473,0,0,1,3.382,4.762,14.23,14.23,0,0,1,1.246,6.008,14.487,14.487,0,0,1-1.557,6.808,15.256,15.256,0,0,1-4.183,5.029,18.8,18.8,0,0,1-6.1,3.115A24.677,24.677,0,0,1,331.08,0Zm17.266-31.951h9.167a8.926,8.926,0,0,0,5.029-1.379,10.5,10.5,0,0,0,3.337-3.516,16.486,16.486,0,0,0,1.825-4.672,21.468,21.468,0,0,0,.578-4.762,21.468,21.468,0,0,0-.578-4.762,16.488,16.488,0,0,0-1.825-4.673,10.5,10.5,0,0,0-3.337-3.515,8.926,8.926,0,0,0-5.029-1.38h-9.167Zm0,1.6V-7.12q0,3.2,2.047,4.361A9.6,9.6,0,0,0,320.222-1.6h8.989a7.59,7.59,0,0,0,4.761-1.469A10.509,10.509,0,0,0,337-6.764a18.444,18.444,0,0,0,1.6-4.717,23.729,23.729,0,0,0,.49-4.539,23.724,23.724,0,0,0-.49-4.539,17.754,17.754,0,0,0-1.6-4.673,10.624,10.624,0,0,0-3.026-3.649,7.59,7.59,0,0,0-4.761-1.468Z" transform="translate(960 577)" fill="#fff"/>
    <path id="Path_1-2" data-name="Path 1" d="M-201.925,0V-28.454h2.706l12.054,19.8h-1.845l12.054-19.8h2.706V0h-3.85V-21.689l.9.246-9.512,15.621h-2.706l-9.512-15.621.861-.246V0Zm42.64.41a9.983,9.983,0,0,1-5.166-1.353,10.1,10.1,0,0,1-3.649-3.67A10.093,10.093,0,0,1-169.453-9.8a9.8,9.8,0,0,1,1.353-5.1,10.2,10.2,0,0,1,3.649-3.628,9.983,9.983,0,0,1,5.166-1.353,10.134,10.134,0,0,1,5.146,1.333,9.943,9.943,0,0,1,3.669,3.628,9.9,9.9,0,0,1,1.353,5.12,10.093,10.093,0,0,1-1.353,5.187,10.052,10.052,0,0,1-3.669,3.67A10.015,10.015,0,0,1-159.285.41Zm0-3.567a6.25,6.25,0,0,0,3.28-.861,6.132,6.132,0,0,0,2.255-2.358,7.007,7.007,0,0,0,.82-3.424,6.673,6.673,0,0,0-.841-3.362,6.221,6.221,0,0,0-2.255-2.317,6.259,6.259,0,0,0-3.26-.84,6.368,6.368,0,0,0-3.28.84,6.022,6.022,0,0,0-2.255,2.317,6.8,6.8,0,0,0-.82,3.362,7.008,7.008,0,0,0,.82,3.424,6.132,6.132,0,0,0,2.255,2.358,6.25,6.25,0,0,0,3.281.861ZM-136.735.41a8.938,8.938,0,0,1-4.838-1.333,9.613,9.613,0,0,1-3.382-3.629,10.623,10.623,0,0,1-1.251-5.166,10.623,10.623,0,0,1,1.251-5.166,9.774,9.774,0,0,1,3.382-3.649,8.836,8.836,0,0,1,4.838-1.353,8.359,8.359,0,0,1,3.936.922,7.634,7.634,0,0,1,2.85,2.542,7.361,7.361,0,0,1,1.21,3.752v5.863a7.532,7.532,0,0,1-1.189,3.731,7.412,7.412,0,0,1-2.829,2.563,8.448,8.448,0,0,1-3.978.923Zm.615-3.485a5.932,5.932,0,0,0,3.219-.861,5.981,5.981,0,0,0,2.152-2.358,7.306,7.306,0,0,0,.779-3.424,7.211,7.211,0,0,0-.8-3.485,6.172,6.172,0,0,0-2.173-2.337,5.932,5.932,0,0,0-3.219-.861,6.037,6.037,0,0,0-3.239.861,6.08,6.08,0,0,0-2.193,2.358,7.153,7.153,0,0,0-.8,3.424,7.242,7.242,0,0,0,.8,3.464,6.031,6.031,0,0,0,2.214,2.358,6.143,6.143,0,0,0,3.26.861ZM-126.485,0h-3.731V-5.248l.7-4.756-.7-4.715V-29.274h3.731Zm14.391.41a10.406,10.406,0,0,1-5.248-1.333,9.9,9.9,0,0,1-3.69-3.629,10.062,10.062,0,0,1-1.353-5.207,10.1,10.1,0,0,1,1.333-5.166,9.88,9.88,0,0,1,3.608-3.628,9.913,9.913,0,0,1,5.1-1.333,9.173,9.173,0,0,1,4.776,1.23,8.629,8.629,0,0,1,3.239,3.4,10.222,10.222,0,0,1,1.169,4.92q0,.41-.041.881a10.075,10.075,0,0,1-.164,1.087H-119.8v-3.075h14.473l-1.353,1.189a7.32,7.32,0,0,0-.7-3.342,5.122,5.122,0,0,0-1.968-2.132,5.9,5.9,0,0,0-3.075-.759,6.576,6.576,0,0,0-3.321.82,5.6,5.6,0,0,0-2.214,2.3,7.367,7.367,0,0,0-.779,3.485,7.513,7.513,0,0,0,.82,3.588,5.762,5.762,0,0,0,2.337,2.378,7.071,7.071,0,0,0,3.485.841,7.739,7.739,0,0,0,3.014-.574,6.234,6.234,0,0,0,2.357-1.722l2.378,2.419a9.078,9.078,0,0,1-3.424,2.5,10.96,10.96,0,0,1-4.324.862ZM-99.138,0V-19.475h3.69V0Zm3.69-11.111-1.394-.615a9.431,9.431,0,0,1,1.722-5.945,5.91,5.91,0,0,1,4.961-2.214,6.668,6.668,0,0,1,2.665.512,6.191,6.191,0,0,1,2.214,1.7l-2.419,2.5a3.688,3.688,0,0,0-1.353-.943,4.736,4.736,0,0,0-1.722-.287,4.552,4.552,0,0,0-3.362,1.312,5.407,5.407,0,0,0-1.312,3.98ZM-68.839,0V-11.357a5.022,5.022,0,0,0-1.394-3.649,4.807,4.807,0,0,0-3.608-1.435,5.194,5.194,0,0,0-2.624.656,4.764,4.764,0,0,0-1.8,1.8,5.194,5.194,0,0,0-.656,2.624l-1.517-.861a7.791,7.791,0,0,1,.984-3.936,7.211,7.211,0,0,1,2.747-2.726,7.89,7.89,0,0,1,3.977-1,7.019,7.019,0,0,1,3.916,1.107,8.016,8.016,0,0,1,2.686,2.891,7.733,7.733,0,0,1,.984,3.793V0ZM-82.615,0V-19.475h3.69V0Zm44.567.41a14.282,14.282,0,0,1-5.7-1.128A13.989,13.989,0,0,1-48.32-3.855a14.241,14.241,0,0,1-3.014-4.674,15.2,15.2,0,0,1-1.066-5.7,15.312,15.312,0,0,1,1.066-5.74,14.012,14.012,0,0,1,3.014-4.654,14.2,14.2,0,0,1,4.551-3.116,14.135,14.135,0,0,1,5.678-1.128,14.221,14.221,0,0,1,5.9,1.148,15.136,15.136,0,0,1,4.51,3.116l-2.665,2.665a9.514,9.514,0,0,0-3.3-2.378,10.9,10.9,0,0,0-4.449-.861,10.5,10.5,0,0,0-4.141.8A9.632,9.632,0,0,0-45.51-22.1a10.322,10.322,0,0,0-2.153,3.485,12.324,12.324,0,0,0-.758,4.387,12.324,12.324,0,0,0,.758,4.387A10.322,10.322,0,0,0-45.51-6.355,9.632,9.632,0,0,0-42.23-4.08a10.5,10.5,0,0,0,4.141.8,11.254,11.254,0,0,0,4.633-.881,9.694,9.694,0,0,0,3.321-2.4l2.665,2.624a14.12,14.12,0,0,1-4.613,3.2A14.839,14.839,0,0,1-38.048.41ZM-23.411,0V-29.274h3.69V0Zm18,.41A9.983,9.983,0,0,1-10.578-.943a10.1,10.1,0,0,1-3.649-3.67A10.093,10.093,0,0,1-15.58-9.8a9.8,9.8,0,0,1,1.353-5.1,10.2,10.2,0,0,1,3.649-3.628,9.983,9.983,0,0,1,5.166-1.353A10.134,10.134,0,0,1-.266-18.552,9.943,9.943,0,0,1,3.4-14.924,9.9,9.9,0,0,1,4.756-9.8,10.093,10.093,0,0,1,3.4-4.613,10.052,10.052,0,0,1-.266-.943,10.015,10.015,0,0,1-5.412.41Zm0-3.567a6.25,6.25,0,0,0,3.28-.861A6.132,6.132,0,0,0,.123-6.376,7.008,7.008,0,0,0,.943-9.8,6.673,6.673,0,0,0,.1-13.161a6.221,6.221,0,0,0-2.255-2.317,6.258,6.258,0,0,0-3.259-.84,6.368,6.368,0,0,0-3.28.84,6.022,6.022,0,0,0-2.255,2.317,6.8,6.8,0,0,0-.82,3.362,7.008,7.008,0,0,0,.82,3.424A6.132,6.132,0,0,0-8.692-4.018a6.25,6.25,0,0,0,3.28.861ZM11.275,0V-27.634h3.69V0Zm-4.8-16.113v-3.362H19.762v3.362ZM37.146,0V-11.357a5.022,5.022,0,0,0-1.394-3.649,4.807,4.807,0,0,0-3.608-1.435,5.194,5.194,0,0,0-2.624.656,4.764,4.764,0,0,0-1.8,1.8,5.194,5.194,0,0,0-.656,2.624l-1.517-.861a7.791,7.791,0,0,1,.984-3.936,7.211,7.211,0,0,1,2.747-2.726,7.89,7.89,0,0,1,3.977-1,7.679,7.679,0,0,1,3.916.984,7.109,7.109,0,0,1,2.686,2.747,8.188,8.188,0,0,1,.984,4.059V0ZM23.37,0V-29.274h3.69V0ZM45.879,0V-19.475h3.69V0Zm1.845-23.37a2.24,2.24,0,0,1-1.681-.676,2.346,2.346,0,0,1-.656-1.7,2.294,2.294,0,0,1,.656-1.66,2.24,2.24,0,0,1,1.681-.677,2.24,2.24,0,0,1,1.681.677,2.294,2.294,0,0,1,.656,1.66,2.346,2.346,0,0,1-.656,1.7,2.24,2.24,0,0,1-1.681.676ZM68.8,0V-11.357a5.022,5.022,0,0,0-1.4-3.649,4.807,4.807,0,0,0-3.6-1.435,5.194,5.194,0,0,0-2.624.656,4.764,4.764,0,0,0-1.8,1.8,5.194,5.194,0,0,0-.656,2.624l-1.52-.857a7.791,7.791,0,0,1,.984-3.936,7.211,7.211,0,0,1,2.747-2.726,7.89,7.89,0,0,1,3.977-1,7.019,7.019,0,0,1,3.916,1.107A8.016,8.016,0,0,1,71.5-15.888a7.733,7.733,0,0,1,.984,3.793V0ZM55.022,0V-19.475h3.69V0ZM85.567,8.569a12.172,12.172,0,0,1-5.31-1.107,9.3,9.3,0,0,1-3.711-3.116l2.378-2.419a8.053,8.053,0,0,0,2.829,2.317,8.8,8.8,0,0,0,3.895.8,6.789,6.789,0,0,0,4.736-1.579A5.443,5.443,0,0,0,92.127-.779V-5.617L92.783-10l-.656-4.346v-5.125h3.69v18.7A9.1,9.1,0,0,1,94.526,4.1a8.929,8.929,0,0,1-3.608,3.28,11.558,11.558,0,0,1-5.351,1.189Zm0-8.9A9.08,9.08,0,0,1,80.791-1.6a9.163,9.163,0,0,1-3.342-3.5,10.24,10.24,0,0,1-1.23-5.023,10.008,10.008,0,0,1,1.23-4.982A9.4,9.4,0,0,1,80.79-18.59a8.97,8.97,0,0,1,4.777-1.291,8.79,8.79,0,0,1,4.059.9,7.156,7.156,0,0,1,2.808,2.522,7.367,7.367,0,0,1,1.128,3.792V-7.5a7.6,7.6,0,0,1-1.169,3.752A7.156,7.156,0,0,1,89.585-1.23a8.7,8.7,0,0,1-4.018.9Zm.738-3.485a6.329,6.329,0,0,0,3.177-.779,5.27,5.27,0,0,0,2.111-2.194,7.038,7.038,0,0,0,.738-3.3,6.881,6.881,0,0,0-.758-3.3A5.583,5.583,0,0,0,89.462-15.6a6.172,6.172,0,0,0-3.2-.8,6.4,6.4,0,0,0-3.239.8,5.786,5.786,0,0,0-2.193,2.214,6.51,6.51,0,0,0-.8,3.26,6.625,6.625,0,0,0,.8,3.28,5.706,5.706,0,0,0,2.214,2.235,6.51,6.51,0,0,0,3.261.8ZM118.326.41a12.363,12.363,0,0,1-5.74-1.23,12.982,12.982,0,0,1-4.223-3.567l2.624-2.624a9.417,9.417,0,0,0,3.116,2.85,8.963,8.963,0,0,0,4.346.964A6.835,6.835,0,0,0,122.528-4.3a3.538,3.538,0,0,0,1.537-3.034,4.2,4.2,0,0,0-.738-2.583,5.6,5.6,0,0,0-1.989-1.619,21.794,21.794,0,0,0-2.727-1.148q-1.476-.512-2.952-1.107a12.892,12.892,0,0,1-2.706-1.476,6.576,6.576,0,0,1-1.989-2.316,7.67,7.67,0,0,1-.758-3.608,7.1,7.1,0,0,1,1.169-4.121,7.591,7.591,0,0,1,3.2-2.624,10.927,10.927,0,0,1,4.572-.923,11.205,11.205,0,0,1,5,1.087,10.3,10.3,0,0,1,3.608,2.849L125.132-22.3a9.017,9.017,0,0,0-2.727-2.214,7.289,7.289,0,0,0-3.341-.738,5.989,5.989,0,0,0-3.649,1,3.3,3.3,0,0,0-1.353,2.809,3.427,3.427,0,0,0,.758,2.316,6.288,6.288,0,0,0,1.989,1.5,22.141,22.141,0,0,0,2.726,1.128q1.5.513,2.973,1.127a12.028,12.028,0,0,1,2.706,1.558,7.012,7.012,0,0,1,1.989,2.439,8.259,8.259,0,0,1,.758,3.752,7.212,7.212,0,0,1-2.6,5.9A10.768,10.768,0,0,1,118.326.41ZM135.505,0V-27.634h3.69V0Zm-4.8-16.113v-3.362h13.284v3.362ZM155.882.41a9.983,9.983,0,0,1-5.166-1.353,10.1,10.1,0,0,1-3.649-3.67A10.093,10.093,0,0,1,145.714-9.8a9.8,9.8,0,0,1,1.353-5.1,10.2,10.2,0,0,1,3.649-3.628,9.983,9.983,0,0,1,5.166-1.353,10.134,10.134,0,0,1,5.146,1.333A9.943,9.943,0,0,1,164.7-14.92,9.9,9.9,0,0,1,166.05-9.8a10.093,10.093,0,0,1-1.35,5.187,10.052,10.052,0,0,1-3.669,3.67A10.015,10.015,0,0,1,155.882.41Zm0-3.567a6.25,6.25,0,0,0,3.28-.861,6.132,6.132,0,0,0,2.255-2.358,7.008,7.008,0,0,0,.82-3.424,6.673,6.673,0,0,0-.84-3.362,6.221,6.221,0,0,0-2.255-2.317,6.259,6.259,0,0,0-3.26-.84,6.368,6.368,0,0,0-3.28.84,6.022,6.022,0,0,0-2.255,2.317,6.8,6.8,0,0,0-.82,3.362,7.008,7.008,0,0,0,.82,3.424A6.132,6.132,0,0,0,152.6-4.018a6.25,6.25,0,0,0,3.282.861ZM170.191,0V-19.475h3.69V0Zm3.69-11.111-1.394-.615a9.431,9.431,0,0,1,1.722-5.945,5.91,5.91,0,0,1,4.961-2.214,6.668,6.668,0,0,1,2.665.512,6.191,6.191,0,0,1,2.214,1.7l-2.419,2.5a3.688,3.688,0,0,0-1.353-.943,4.736,4.736,0,0,0-1.722-.287,4.552,4.552,0,0,0-3.362,1.312,5.407,5.407,0,0,0-1.312,3.98ZM195.037.41a10.406,10.406,0,0,1-5.248-1.333,9.9,9.9,0,0,1-3.69-3.629,10.062,10.062,0,0,1-1.353-5.207,10.1,10.1,0,0,1,1.333-5.166,9.88,9.88,0,0,1,3.608-3.628,9.913,9.913,0,0,1,5.1-1.333,9.173,9.173,0,0,1,4.777,1.23,8.629,8.629,0,0,1,3.239,3.4,10.222,10.222,0,0,1,1.169,4.92q0,.41-.041.881a10.078,10.078,0,0,1-.164,1.087H187.329v-3.075H201.8l-1.353,1.189a7.32,7.32,0,0,0-.7-3.342,5.122,5.122,0,0,0-1.968-2.132,5.9,5.9,0,0,0-3.075-.759,6.576,6.576,0,0,0-3.321.82,5.6,5.6,0,0,0-2.214,2.3,7.367,7.367,0,0,0-.779,3.485,7.513,7.513,0,0,0,.82,3.588,5.762,5.762,0,0,0,2.337,2.378,7.071,7.071,0,0,0,3.485.841,7.739,7.739,0,0,0,3.014-.574A6.234,6.234,0,0,0,200.4-5.371l2.378,2.419a9.078,9.078,0,0,1-3.424,2.5,10.96,10.96,0,0,1-4.32.862Z" transform="translate(960 643)" fill="#fff"/>
  </g>
</svg>
